<?xml version="1.0" encoding="UTF-8"?>
<svg version="1.1" xmlns="http://www.w3.org/2000/svg" width="192" height="192">
<path d="M0 0 C63.36 0 126.72 0 192 0 C192 63.36 192 126.72 192 192 C128.64 192 65.28 192 0 192 C0 128.64 0 65.28 0 0 Z " fill="#D0D0D0" transform="translate(0,0)"/>
<path d="M0 0 C10.89 0 21.78 0 33 0 C32.67 1.65 32.34 3.3 32 5 C29.69 5.33 27.38 5.66 25 6 C23.27720191 9.76295373 22.71288989 12.83107844 22.5859375 16.95703125 C22.54726562 18.06884766 22.50859375 19.18066406 22.46875 20.32617188 C22.42234375 22.0519043 22.42234375 22.0519043 22.375 23.8125 C22.33632812 24.98232422 22.29765625 26.15214844 22.2578125 27.35742188 C22.1637487 30.23812564 22.07810123 33.11882654 22 36 C31.93410732 30.57145969 39.11537932 23.26860929 46.08984375 14.3828125 C48 12 48 12 49.75390625 10.3671875 C51.33680909 8.93876886 51.33680909 8.93876886 51 6 C49.68 5.34 48.36 4.68 47 4 C47.33 2.68 47.66 1.36 48 0 C57.24 0 66.48 0 76 0 C75.67 1.65 75.34 3.3 75 5 C73.700625 5.04125 72.40125 5.0825 71.0625 5.125 C59.92764402 6.46048896 52.30196992 16.27987862 45 24 C44.23429687 24.79664062 43.46859375 25.59328125 42.6796875 26.4140625 C38.68134307 30.45068948 38.68134307 30.45068948 38 36 C39.08834709 37.72901347 39.08834709 37.72901347 40.68359375 39.29296875 C41.27366211 39.9154248 41.86373047 40.53788086 42.47167969 41.17919922 C43.12040039 41.84193848 43.76912109 42.50467773 44.4375 43.1875 C45.43185059 44.22414795 45.43185059 44.22414795 46.44628906 45.28173828 C48.61761469 47.53447598 50.80612704 49.76922342 53 52 C54.15363037 53.1763501 54.15363037 53.1763501 55.33056641 54.37646484 C57.63061726 56.71578369 59.93773429 59.04775685 62.25 61.375 C62.97630615 62.10614014 63.7026123 62.83728027 64.45092773 63.59057617 C65.47295288 64.60921753 65.47295288 64.60921753 66.515625 65.6484375 C67.41716309 66.54828369 67.41716309 66.54828369 68.33691406 67.46630859 C71.76385294 70.62661834 74.47292641 71.39639019 79 72 C79 73.65 79 75.3 79 77 C62.71670986 79.21151325 62.71670986 79.21151325 56.82373047 75.70507812 C52.79220685 72.28145866 49.5799743 68.19930526 46.44726562 63.95800781 C45.14620561 62.19780179 43.79881775 60.51075098 42.390625 58.8359375 C40.22199929 56.25250754 38.1064673 53.63413947 36 51 C34.80470132 49.51028038 33.59720519 48.03022543 32.375 46.5625 C31.88773438 45.96566406 31.40046875 45.36882812 30.8984375 44.75390625 C28.2034435 42.26408669 25.2261994 40.74337379 22 39 C22.08097907 43.39658178 22.19381799 47.7917871 22.3125 52.1875 C22.33505859 53.43337891 22.35761719 54.67925781 22.38085938 55.96289062 C22.4340332 57.7659668 22.4340332 57.7659668 22.48828125 59.60546875 C22.51446533 60.71043701 22.54064941 61.81540527 22.56762695 62.95385742 C23.05276864 66.37176414 23.86530217 68.29641762 26 71 C29.59919423 71.89592083 29.59919423 71.89592083 33 72 C33 73.65 33 75.3 33 77 C22.11 77 11.22 77 0 77 C0 75.35 0 73.7 0 72 C0.56589844 71.87882812 1.13179688 71.75765625 1.71484375 71.6328125 C2.44832031 71.46523437 3.18179688 71.29765625 3.9375 71.125 C4.66839844 70.96257812 5.39929688 70.80015625 6.15234375 70.6328125 C8.20700294 70.17038477 8.20700294 70.17038477 9 68 C9.10136781 66.10104539 9.13839561 64.19852083 9.14526367 62.296875 C9.15164352 61.10223633 9.15802338 59.90759766 9.16459656 58.67675781 C9.16626579 56.7330127 9.16626579 56.7330127 9.16796875 54.75 C9.1711808 53.41243453 9.17454483 52.07486941 9.17805481 50.73730469 C9.18404582 47.93293442 9.18589469 45.12859497 9.18530273 42.32421875 C9.185201 38.7259727 9.19886508 35.12792347 9.21607494 31.52972412 C9.22717695 28.76740608 9.22922252 26.00513593 9.22869301 23.24279785 C9.23045129 21.2695978 9.2413016 19.29641269 9.25224304 17.32324219 C9.24916641 16.12860352 9.24608978 14.93396484 9.24291992 13.703125 C9.24434494 12.64770508 9.24576996 11.59228516 9.24723816 10.50488281 C9.25033395 7.82751284 9.25033395 7.82751284 7 6 C4.67724823 5.59952556 2.34260643 5.2602896 0 5 C0 3.35 0 1.7 0 0 Z " fill="#060606" transform="translate(89,47)"/>
<path d="M0 0 C20.13 0 40.26 0 61 0 C61 1.65 61 3.3 61 5 C59.96875 5 58.9375 5 57.875 5 C55.41457848 5.36080441 54.28882844 5.71145617 52.51342773 7.48510742 C48.6300654 12.87605598 45.32596368 18.45950683 42.1875 24.3125 C41.67050537 25.26656738 41.15351074 26.22063477 40.62084961 27.20361328 C36.84477683 34.24287968 33.32222668 41.37944911 30.0300293 48.6574707 C28.00976677 53.08122592 25.75675918 57.13303857 23.03637695 61.16870117 C21.3718859 64.10989019 21.13692256 66.64539729 21 70 C23.55253966 72.55253966 30.38660564 71.33155926 33.8125 71.375 C35.47249023 71.43107422 35.47249023 71.43107422 37.16601562 71.48828125 C43.40052189 71.72596458 43.40052189 71.72596458 48.62109375 68.80859375 C49.9412388 66.11968642 51.20209378 63.49439166 52.25 60.6875 C52.58515625 59.80449219 52.9203125 58.92148438 53.265625 58.01171875 C53.50796875 57.34785156 53.7503125 56.68398437 54 56 C55.66611905 55.957279 57.33382885 55.95936168 59 56 C60.60260138 57.60260138 60.20898122 59.28498585 60.25 61.5 C60.21479027 66.3941527 59.678932 73.321068 56 77 C54.09756238 77.09391296 52.19161541 77.11743658 50.28686523 77.11352539 C49.0656749 77.11344986 47.84448456 77.11337433 46.58628845 77.11329651 C45.24372314 77.10818911 43.90115825 77.10297311 42.55859375 77.09765625 C41.19238842 77.09579199 39.82618243 77.09436813 38.4599762 77.09336853 C34.85798305 77.08954394 31.25603 77.07971417 27.65405273 77.06866455 C23.98096255 77.05844916 20.30786591 77.05387064 16.63476562 77.04882812 C9.42315877 77.03809184 2.211585 77.02101614 -5 77 C-5 75.35 -5 73.7 -5 72 C-3.453125 71.7834375 -3.453125 71.7834375 -1.875 71.5625 C3.52673638 69.97120692 5.35768475 65.656433 8 61 C8.6290625 59.93910156 9.258125 58.87820312 9.90625 57.78515625 C13.98992117 50.84459987 17.65711645 43.75324109 21.20703125 36.5234375 C23.09177466 32.81964979 25.10566227 29.22006781 27.1875 25.625 C32.98256509 15.85121854 32.98256509 15.85121854 36 5 C31.72838208 5.08069751 27.45821066 5.19355745 23.1875 5.3125 C21.97255859 5.33505859 20.75761719 5.35761719 19.50585938 5.38085938 C18.34248047 5.41630859 17.17910156 5.45175781 15.98046875 5.48828125 C14.37014771 5.52755737 14.37014771 5.52755737 12.72729492 5.56762695 C9.68705319 6.04961318 8.78434464 6.54547209 7 9 C5.94386131 11.83577395 5.10406427 14.69686049 4.2578125 17.6015625 C3 20 3 20 0.4921875 20.8984375 C-2 21 -2 21 -4 20 C-4.71899955 12.27075482 -2.55128496 8.29167611 0 0 Z " fill="#070707" transform="translate(17,47)"/>
<path d="M0 0 C0.66 0 1.32 0 2 0 C2 2.97 2 5.94 2 9 C3.0725 8.7525 4.145 8.505 5.25 8.25 C9 8 9 8 11.4375 9.4375 C13.61925357 13.01557586 13.78694204 15.91459877 13 20 C11.625 22.5 11.625 22.5 9 24 C6.55615234 24.14648438 6.55615234 24.14648438 3.8359375 24.09375 C2.93149902 24.08021484 2.02706055 24.06667969 1.09521484 24.05273438 C0.0580835 24.02663086 0.0580835 24.02663086 -1 24 C-1.02887236 20.18751574 -1.04675492 16.3750593 -1.0625 12.5625 C-1.07087891 11.47388672 -1.07925781 10.38527344 -1.08789062 9.26367188 C-1.09111328 8.22919922 -1.09433594 7.19472656 -1.09765625 6.12890625 C-1.10289307 5.17056885 -1.10812988 4.21223145 -1.11352539 3.22485352 C-1 1 -1 1 0 0 Z " fill="#161616" transform="translate(47,126)"/>
<path d="M0 0 C0.66 0 1.32 0 2 0 C2 7.92 2 15.84 2 24 C-1.63 24 -5.26 24 -9 24 C-12.14758565 19.80321913 -12.55587766 18.75871423 -12.34765625 13.90625 C-12 12 -12 12 -10.375 9.5 C-7.39901677 7.62043164 -5.45669582 7.68575493 -2 8 C-1.34 5.36 -0.68 2.72 0 0 Z " fill="#131313" transform="translate(100,126)"/>
<path d="M0 0 C1.5778125 0.4021875 1.5778125 0.4021875 3.1875 0.8125 C4.24097893 3.97293678 4.20489488 6.56932228 4.15625 9.87109375 C4.19015625 11.97751969 4.52117222 13.81351667 5.1875 15.8125 C4.1975 15.8125 3.2075 15.8125 2.1875 15.8125 C0.16255711 16.15135133 -1.85705272 16.50835363 -3.875 16.88671875 C-5.8125 16.8125 -5.8125 16.8125 -7.53125 15.60546875 C-9.54244983 12.79101533 -9.3492255 10.41471777 -9.22265625 7.046875 C-8.8125 4.8125 -8.8125 4.8125 -6.75 1.6875 C-3.8125 -0.1875 -3.8125 -0.1875 0 0 Z " fill="#1B1B1B" transform="translate(71.8125,134.1875)"/>
<path d="M0 0 C0.86625 0.268125 1.7325 0.53625 2.625 0.8125 C3.67270842 3.95562525 3.64220722 6.52171075 3.59375 9.8046875 C3.63145627 12.22731509 4.03825477 14.46551908 4.625 16.8125 C3.903125 16.626875 3.18125 16.44125 2.4375 16.25 C-0.34850204 15.6325209 -0.34850204 15.6325209 -2.9375 16.4375 C-5.375 16.8125 -5.375 16.8125 -7.6875 15.9375 C-10.01927327 13.00119292 -10.05921009 10.7316634 -9.890625 7.046875 C-9.30494466 4.50892687 -8.63809279 3.45634483 -6.75 1.6875 C-3.375 -0.1875 -3.375 -0.1875 0 0 Z " fill="#0A0A0A" transform="translate(155.375,134.1875)"/>
<path d="M0 0 C3.375 1 3.375 1 4.8125 2.6875 C5.93970016 7.32154511 5.85094918 10.04810163 3.6875 14.375 C1.375 17 1.375 17 -1.125 17.625 C-4.5515943 16.76835142 -5.6674227 15.97261738 -7.625 13 C-8.41681968 8.64099266 -8.34794882 5.21455402 -6.0625 1.375 C-3.625 0 -3.625 0 0 0 Z " fill="#202020" transform="translate(36.625,134)"/>
<path d="M0 0 C0.99 0 1.98 0 3 0 C3 4.62 3 9.24 3 14 C4.093125 13.01 5.18625 12.02 6.3125 11 C9.625 8 9.625 8 13 8 C11.79618552 10.49361571 10.54571278 12.68143083 9 15 C9.66 15.928125 10.32 16.85625 11 17.8125 C13 21 13 21 13 24 C9.58875982 22.58845234 8.1543777 20.93778777 6 18 C5.34 18 4.68 18 4 18 C3.67 19.98 3.34 21.96 3 24 C2.01 24 1.02 24 0 24 C0 16.08 0 8.16 0 0 Z " fill="#141414" transform="translate(131,126)"/>
<path d="M0 0 C3.96 0 7.92 0 12 0 C10.875 5.625 10.875 5.625 8.4375 8.8125 C7.98246094 9.41707031 7.52742188 10.02164063 7.05859375 10.64453125 C6.70925781 11.09183594 6.35992187 11.53914062 6 12 C7.98 12.66 9.96 13.32 12 14 C12 14.99 12 15.98 12 17 C7.71 17 3.42 17 -1 17 C0.00873842 12.96504633 1.0115662 11.40388179 3.5625 8.25 C4.20316406 7.45078125 4.84382813 6.6515625 5.50390625 5.828125 C6.24447266 4.92320312 6.24447266 4.92320312 7 4 C4.69 3.67 2.38 3.34 0 3 C0 2.01 0 1.02 0 0 Z " fill="#282828" transform="translate(14,134)"/>
<path d="M0 0 C4.29 0 8.58 0 13 0 C12.05638599 3.77445603 11.09747937 5.62492346 8.9375 8.75 C8.38964844 9.54921875 7.84179688 10.3484375 7.27734375 11.171875 C6.85582031 11.77515625 6.43429688 12.3784375 6 13 C8.31 13.33 10.62 13.66 13 14 C12.67 14.99 12.34 15.98 12 17 C8.04 17 4.08 17 0 17 C1.00873842 12.96504633 2.0115662 11.40388179 4.5625 8.25 C5.20316406 7.45078125 5.84382812 6.6515625 6.50390625 5.828125 C7.24447266 4.92320312 7.24447266 4.92320312 8 4 C5.36 3.67 2.72 3.34 0 3 C0 2.01 0 1.02 0 0 Z " fill="#333333" transform="translate(163,134)"/>
<path d="M0 0 C0.99 0 1.98 0 3 0 C3 4.29 3 8.58 3 13 C4.98 13 6.96 13 9 13 C9 9.04 9 5.08 9 1 C9.99 0.67 10.98 0.34 12 0 C12 5.61 12 11.22 12 17 C10.576875 17.061875 9.15375 17.12375 7.6875 17.1875 C6.48673828 17.23970703 6.48673828 17.23970703 5.26171875 17.29296875 C3 17 3 17 1.21875 15.9375 C-0.66475812 12.94320503 -0.28345796 10.29897246 -0.1875 6.8125 C-0.16042969 5.54019531 -0.13335937 4.26789063 -0.10546875 2.95703125 C-0.07066406 1.98121094 -0.03585938 1.00539062 0 0 Z " fill="#1E1E1E" transform="translate(106,134)"/>
<path d="M0 0 C1.50662097 3.01324195 1.17770373 5.68286377 1 9 C0.34 9.66 -0.32 10.32 -1 11 C-4.29714793 10.67028521 -5.6226839 10.3773161 -8 8 C-8.36487512 5.15397406 -8.40199375 3.6135694 -6.8125 1.1875 C-4.44017475 -0.36678206 -2.77958655 -0.22537188 0 0 Z " fill="#C2C2C2" transform="translate(98,137)"/>
<path d="M0 0 C0.66 0.66 1.32 1.32 2 2 C1.8125 5 1.8125 5 1 8 C-2 10 -2 10 -4.6875 9.625 C-5.450625 9.41875 -6.21375 9.2125 -7 9 C-7 6.03 -7 3.06 -7 0 C-4.29393021 -1.35303489 -2.8671629 -0.7884698 0 0 Z " fill="#B0B0B0" transform="translate(56,138)"/>
<path d="M0 0 C0.99 0 1.98 0 3 0 C3 7.92 3 15.84 3 24 C2.01 24 1.02 24 0 24 C0 16.08 0 8.16 0 0 Z " fill="#111111" transform="translate(123,126)"/>
<path d="M0 0 C0.02688151 1.64574566 0.04634123 3.29161413 0.0625 4.9375 C0.07410156 5.85402344 0.08570312 6.77054688 0.09765625 7.71484375 C0 10 0 10 -1 11 C-3.5 11.125 -3.5 11.125 -6 11 C-7 10 -7 10 -7.25 6.625 C-7 3 -7 3 -5.75 1.0625 C-4 0 -4 0 0 0 Z " fill="#B4B4B4" transform="translate(73,137)"/>
<path d="M0 0 C0.02688151 1.64574566 0.04634123 3.29161413 0.0625 4.9375 C0.07410156 5.85402344 0.08570313 6.77054688 0.09765625 7.71484375 C0 10 0 10 -1 11 C-3.5 11.125 -3.5 11.125 -6 11 C-7 10 -7 10 -7.25 6.625 C-7 3 -7 3 -5.75 1.0625 C-4 0 -4 0 0 0 Z " fill="#DADADA" transform="translate(156,137)"/>
<path d="M0 0 C0.33 0 0.66 0 1 0 C1.66 2.31 2.32 4.62 3 7 C4.65 7.33 6.3 7.66 8 8 C8.99 6.02 9.98 4.04 11 2 C12.87620422 5.16609462 13.09662822 7.35832401 13 11 C11.23050905 11.10815225 9.45912513 11.18566083 7.6875 11.25 C6.70136719 11.29640625 5.71523437 11.3428125 4.69921875 11.390625 C2 11 2 11 0.16015625 9.18359375 C-1.36165993 6.31929999 -1.28405244 4.19558993 -1 1 C-0.67 0.67 -0.34 0.34 0 0 Z " fill="#070707" transform="translate(89,139)"/>
<path d="M0 0 C1.66611905 -0.042721 3.33382885 -0.04063832 5 0 C6 1 6 1 6.1875 3.875 C6 7 6 7 4 10 C0.125 9.125 0.125 9.125 -1 8 C-1.23529412 2.47058824 -1.23529412 2.47058824 0 0 Z " fill="#ADADAD" transform="translate(33,138)"/>
<path d="M0 0 C0.66 0 1.32 0 2 0 C2.2475 0.969375 2.495 1.93875 2.75 2.9375 C3.1625 3.948125 3.575 4.95875 4 6 C6.03243548 6.96877057 6.03243548 6.96877057 8 7 C8.99 5.02 9.98 3.04 11 1 C11.33 1 11.66 1 12 1 C12.22179212 4.25295114 12.28601103 6.42797793 10.8125 9.375 C9 11 9 11 6.5625 11.5 C3.11429804 10.82718011 1.99767726 9.88553382 0 7 C-0.25 3.25 -0.25 3.25 0 0 Z " fill="#101010" transform="translate(29,140)"/>
<path d="M0 0 C4.29 0 8.58 0 13 0 C12 4 12 4 10 7 C9.34 7 8.68 7 8 7 C8 6.01 8 5.02 8 4 C5.36 3.67 2.72 3.34 0 3 C0 2.01 0 1.02 0 0 Z " fill="#151515" transform="translate(163,134)"/>
<path d="M0 0 C1.98 0 3.96 0 6 0 C7.05347893 3.16043678 7.01739488 5.75682228 6.96875 9.05859375 C7.00265625 11.16501969 7.33367222 13.00101667 8 15 C5.33333333 15 2.66666667 15 0 15 C0.48726563 14.60941406 0.97453125 14.21882812 1.4765625 13.81640625 C3.4758354 11.4326578 3.40218043 10.01341811 3.375 6.9375 C3.38273437 6.05964844 3.39046875 5.18179688 3.3984375 4.27734375 C3.20121094 3.15005859 3.20121094 3.15005859 3 2 C2.01 1.34 1.02 0.68 0 0 Z " fill="#070707" transform="translate(69,135)"/>
<path d="M0 0 C3.96 0 7.92 0 12 0 C11.67 1.65 11.34 3.3 11 5 C10.01 5.66 9.02 6.32 8 7 C7.67 6.01 7.34 5.02 7 4 C4.69 3.67 2.38 3.34 0 3 C0 2.01 0 1.02 0 0 Z " fill="#0C0C0C" transform="translate(14,134)"/>
<path d="M0 0 C0.99 0 1.98 0 3 0 C3 4.95 3 9.9 3 15 C2.01 14.67 1.02 14.34 0 14 C0 9.38 0 4.76 0 0 Z " fill="#151515" transform="translate(80,135)"/>
<path d="M0 0 C0.99 0 1.98 0 3 0 C3 4.62 3 9.24 3 14 C2.01 14.33 1.02 14.66 0 15 C0 10.05 0 5.1 0 0 Z " fill="#131313" transform="translate(180,135)"/>
<path d="M0 0 C0.99 0 1.98 0 3 0 C3 4.29 3 8.58 3 13 C2.34 13 1.68 13 1 13 C-0.32229189 10.35541621 -0.09677194 8.32238699 -0.0625 5.375 C-0.05347656 4.37210938 -0.04445313 3.36921875 -0.03515625 2.3359375 C-0.02355469 1.56507813 -0.01195313 0.79421875 0 0 Z " fill="#141414" transform="translate(106,134)"/>
<path d="M0 0 C1.485 0.99 1.485 0.99 3 2 C3.144375 2.99 3.28875 3.98 3.4375 5 C3.623125 5.99 3.80875 6.98 4 8 C5.95163118 9.43637698 5.95163118 9.43637698 8 10 C8 10.66 8 11.32 8 12 C2.25 11.25 2.25 11.25 0 9 C-0.1953125 6.8359375 -0.1953125 6.8359375 -0.125 4.375 C-0.10695312 3.55773437 -0.08890625 2.74046875 -0.0703125 1.8984375 C-0.04710937 1.27195313 -0.02390625 0.64546875 0 0 Z " fill="#272727" transform="translate(146,139)"/>
<path d="M0 0 C-1 3 -1 3 -3.4375 4.3125 C-6.70225371 6.46245976 -7.09197007 8.28533211 -8 12 C-8.33 12 -8.66 12 -9 12 C-9.23827469 9.14070376 -9.43309153 6.80172792 -9 4 C-5.87254514 0.52505016 -4.73718042 0 0 0 Z " fill="#131313" transform="translate(156,134)"/>
<path d="M0 0 C0.33 0.66 0.66 1.32 1 2 C3.31 2 5.62 2 8 2 C8 2.66 8 3.32 8 4 C8.66 4.33 9.32 4.66 10 5 C3.53104925 6.34261242 3.53104925 6.34261242 1.0625 4.75 C0 3 0 3 0 0 Z " fill="#2A2A2A" transform="translate(106,145)"/>
<path d="M0 0 C0.33 0.66 0.66 1.32 1 2 C3.64 2 6.28 2 9 2 C9 2.99 9 3.98 9 5 C5.04 4.67 1.08 4.34 -3 4 C-2.01 2.68 -1.02 1.36 0 0 Z " fill="#080808" transform="translate(17,146)"/>
<path d="M0 0 C0.33 0.66 0.66 1.32 1 2 C3.64 2 6.28 2 9 2 C9 2.66 9 3.32 9 4 C5.04 4 1.08 4 -3 4 C-2.01 2.68 -1.02 1.36 0 0 Z " fill="#070707" transform="translate(167,146)"/>
<path d="M0 0 C0.66 0 1.32 0 2 0 C2.25 2.75 2.25 2.75 2 6 C0 8.375 0 8.375 -2 10 C-3 8 -3 8 -2.44140625 6.0546875 C-2.15136719 5.33539063 -1.86132812 4.61609375 -1.5625 3.875 C-1.27503906 3.15054688 -0.98757812 2.42609375 -0.69140625 1.6796875 C-0.46324219 1.12539062 -0.23507813 0.57109375 0 0 Z " fill="#0D0D0D" transform="translate(58,140)"/>
<path d="M0 0 C2.25 -0.25 2.25 -0.25 5 0 C7.3125 1.875 7.3125 1.875 9 4 C9 4.66 9 5.32 9 6 C5.64358593 5.40064035 3.57812038 4.22251757 1 2 C0.67 1.34 0.34 0.68 0 0 Z " fill="#1A1A1A" transform="translate(51,134)"/>
<path d="M0 0 C0.94875 0.04125 1.8975 0.0825 2.875 0.125 C2.875 0.455 2.875 0.785 2.875 1.125 C2.09125 1.2075 1.3075 1.29 0.5 1.375 C-2.27249104 1.85306339 -2.27249104 1.85306339 -3.4375 4.1875 C-3.7778125 5.1465625 -3.7778125 5.1465625 -4.125 6.125 C-5.115 6.125 -6.105 6.125 -7.125 6.125 C-4.34782609 0.17391304 -4.34782609 0.17391304 0 0 Z " fill="#2E2E2E" transform="translate(95.125,133.875)"/>
<path d="M0 0 C0.7425 0.0825 1.485 0.165 2.25 0.25 C1.92 1.24 1.59 2.23 1.25 3.25 C-1.39 3.58 -4.03 3.91 -6.75 4.25 C-3.42692308 0.31153846 -3.42692308 0.31153846 0 0 Z " fill="#232323" transform="translate(70.75,133.75)"/>
<path d="M0 0 C0.99 0 1.98 0 3 0 C3 1.98 3 3.96 3 6 C2.01 6 1.02 6 0 6 C0 4.02 0 2.04 0 0 Z " fill="#9A9A9A" transform="translate(60,140)"/>
</svg>
